<svg height="678" version="1.1" width="1148" xmlns="http://www.w3.org/2000/svg" style="overflow: hidden; position: relative; top: -0.666667px;"><desc style="-webkit-tap-highlight-color: rgba(0, 0, 0, 0);">Created with Raphaël 2.0.1</desc><defs style="-webkit-tap-highlight-color: rgba(0, 0, 0, 0);"></defs><rect x="0" y="0" width="1148" height="678" r="0" rx="0" ry="0" fill="#f5f5f5" stroke="none" style="-webkit-tap-highlight-color: rgba(0, 0, 0, 0);"></rect><ellipse cx="554" cy="364" rx="121" ry="170.60999999999999" fill="none" stroke="#555555" transform="matrix(1,0,0,1,0,0)" stroke-width="1" opacity="0.5" style="-webkit-tap-highlight-color: rgba(0, 0, 0, 0); opacity: 0.5;"></ellipse><ellipse cx="651" cy="352" rx="130" ry="183.29999999999998" fill="none" stroke="#555555" transform="matrix(0.9808,0.1951,-0.1951,0.9808,81.1806,-120.2402)" stroke-width="1" opacity="0.5" style="-webkit-tap-highlight-color: rgba(0, 0, 0, 0); opacity: 0.5;"></ellipse><ellipse cx="324" cy="385" rx="124" ry="174.84" fill="none" stroke="#555555" transform="matrix(0.9239,0.3827,-0.3827,0.9239,171.9962,-94.6831)" stroke-width="1" opacity="0.5" style="-webkit-tap-highlight-color: rgba(0, 0, 0, 0); opacity: 0.5;"></ellipse><ellipse cx="709" cy="392" rx="123" ry="173.42999999999998" fill="none" stroke="#555555" transform="matrix(0.8315,0.5556,-0.5556,0.8315,337.2716,-327.8354)" stroke-width="1" opacity="0.5" style="-webkit-tap-highlight-color: rgba(0, 0, 0, 0); opacity: 0.5;"></ellipse><ellipse cx="769" cy="307" rx="127" ry="179.07" fill="none" stroke="#555555" transform="matrix(0.7071,0.7071,-0.7071,0.7071,442.3167,-453.8469)" stroke-width="1" opacity="0.5" style="-webkit-tap-highlight-color: rgba(0, 0, 0, 0); opacity: 0.5;"></ellipse><ellipse cx="697" cy="328" rx="121" ry="170.60999999999999" fill="none" stroke="#555555" transform="matrix(0.5556,0.8315,-0.8315,0.5556,582.4896,-433.7614)" stroke-width="1" opacity="0.5" style="-webkit-tap-highlight-color: rgba(0, 0, 0, 0); opacity: 0.5;"></ellipse><ellipse cx="546" cy="320" rx="125" ry="176.25" fill="none" stroke="#555555" transform="matrix(0.3827,0.9239,-0.9239,0.3827,632.6963,-306.8969)" stroke-width="1" opacity="0.5" style="-webkit-tap-highlight-color: rgba(0, 0, 0, 0); opacity: 0.5;"></ellipse><ellipse cx="549" cy="255" rx="120" ry="169.2" fill="none" stroke="#555555" transform="matrix(0.1951,0.9808,-0.9808,0.1951,691.9957,-333.1992)" stroke-width="1" opacity="0.5" style="-webkit-tap-highlight-color: rgba(0, 0, 0, 0); opacity: 0.5;"></ellipse><ellipse cx="711" cy="426" rx="127" ry="179.07" fill="none" stroke="#555555" transform="matrix(0,1,-1,0,1137,-285)" stroke-width="1" opacity="0.5" style="-webkit-tap-highlight-color: rgba(0, 0, 0, 0); opacity: 0.5;"></ellipse><ellipse cx="557" cy="404" rx="125" ry="176.25" fill="none" stroke="#555555" transform="matrix(-0.1951,0.9808,-0.9808,-0.1951,1061.9026,-63.4809)" stroke-width="1" opacity="0.5" style="-webkit-tap-highlight-color: rgba(0, 0, 0, 0); opacity: 0.5;"></ellipse><ellipse cx="593" cy="412" rx="123" ry="173.42999999999998" fill="none" stroke="#555555" transform="matrix(-0.3827,0.9239,-0.9239,-0.3827,1200.5696,21.805)" stroke-width="1" opacity="0.5" style="-webkit-tap-highlight-color: rgba(0, 0, 0, 0); opacity: 0.5;"></ellipse><ellipse cx="766" cy="353" rx="129" ry="181.89" fill="none" stroke="#555555" transform="matrix(-0.5556,0.8315,-0.8315,-0.5556,1485.0756,-87.7894)" stroke-width="1" opacity="0.5" style="-webkit-tap-highlight-color: rgba(0, 0, 0, 0); opacity: 0.5;"></ellipse><ellipse cx="786" cy="354" rx="129" ry="181.89" fill="none" stroke="#555555" transform="matrix(-0.7071,0.7071,-0.7071,-0.7071,1592.1017,48.5299)" stroke-width="1" opacity="0.5" style="-webkit-tap-highlight-color: rgba(0, 0, 0, 0); opacity: 0.5;"></ellipse><ellipse cx="689" cy="355" rx="125" ry="176.25" fill="none" stroke="#555555" transform="matrix(-0.8315,0.5556,-0.5556,-0.8315,1459.11,267.3838)" stroke-width="1" opacity="0.5" style="-webkit-tap-highlight-color: rgba(0, 0, 0, 0); opacity: 0.5;"></ellipse><ellipse cx="644" cy="247" rx="126" ry="177.66" fill="none" stroke="#555555" transform="matrix(-0.9239,0.3827,-0.3827,-0.9239,1333.5012,228.7501)" stroke-width="1" opacity="0.5" style="-webkit-tap-highlight-color: rgba(0, 0, 0, 0); opacity: 0.5;"></ellipse><ellipse cx="624" cy="404" rx="122" ry="172.01999999999998" fill="none" stroke="#555555" transform="matrix(-0.9808,0.1951,-0.1951,-0.9808,1314.8265,678.5009)" stroke-width="1" opacity="0.5" style="-webkit-tap-highlight-color: rgba(0, 0, 0, 0); opacity: 0.5;"></ellipse><ellipse cx="366" cy="417" rx="125" ry="176.25" fill="none" stroke="#555555" transform="matrix(-1,0,0,-1,732,834)" stroke-width="1" opacity="0.5" style="-webkit-tap-highlight-color: rgba(0, 0, 0, 0); opacity: 0.5;"></ellipse><ellipse cx="405" cy="242" rx="121" ry="170.60999999999999" fill="none" stroke="#555555" transform="matrix(-0.9808,-0.1951,0.1951,-0.9808,755.0062,558.3616)" stroke-width="1" opacity="0.5" style="-webkit-tap-highlight-color: rgba(0, 0, 0, 0); opacity: 0.5;"></ellipse><ellipse cx="631" cy="400" rx="123" ry="173.42999999999998" fill="none" stroke="#555555" transform="matrix(-0.9239,-0.3827,0.3827,-0.9239,1060.8946,1011.0251)" stroke-width="1" opacity="0.5" style="-webkit-tap-highlight-color: rgba(0, 0, 0, 0); opacity: 0.5;"></ellipse><ellipse cx="652" cy="416" rx="127" ry="179.07" fill="none" stroke="#555555" transform="matrix(-0.8315,-0.5556,0.5556,-0.8315,963.001,1124.1232)" stroke-width="1" opacity="0.5" style="-webkit-tap-highlight-color: rgba(0, 0, 0, 0); opacity: 0.5;"></ellipse><ellipse cx="346" cy="335" rx="126" ry="177.66" fill="none" stroke="#555555" transform="matrix(-0.7071,-0.7071,0.7071,-0.7071,353.7782,816.5397)" stroke-width="1" opacity="0.5" style="-webkit-tap-highlight-color: rgba(0, 0, 0, 0); opacity: 0.5;"></ellipse><ellipse cx="753" cy="410" rx="125" ry="176.25" fill="none" stroke="#555555" transform="matrix(-0.5556,-0.8315,0.8315,-0.5556,830.4418,1263.8804)" stroke-width="1" opacity="0.5" style="-webkit-tap-highlight-color: rgba(0, 0, 0, 0); opacity: 0.5;"></ellipse><ellipse cx="798" cy="322" rx="124" ry="174.84" fill="none" stroke="#555555" transform="matrix(-0.3827,-0.9239,0.9239,-0.3827,805.8922,1182.4799)" stroke-width="1" opacity="0.5" style="-webkit-tap-highlight-color: rgba(0, 0, 0, 0); opacity: 0.5;"></ellipse><ellipse cx="621" cy="284" rx="125" ry="176.25" fill="none" stroke="#555555" transform="matrix(-0.1951,-0.9808,0.9808,-0.1951,463.6081,948.4733)" stroke-width="1" opacity="0.5" style="-webkit-tap-highlight-color: rgba(0, 0, 0, 0); opacity: 0.5;"></ellipse><ellipse cx="738" cy="331" rx="125" ry="176.25" fill="none" stroke="#555555" transform="matrix(0,-1,1,0,407,1069)" stroke-width="1" opacity="0.5" style="-webkit-tap-highlight-color: rgba(0, 0, 0, 0); opacity: 0.5;"></ellipse><ellipse cx="781" cy="332" rx="121" ry="170.60999999999999" fill="none" stroke="#555555" transform="matrix(0.1951,-0.9808,0.9808,0.1951,303.0137,1033.2233)" stroke-width="1" opacity="0.5" style="-webkit-tap-highlight-color: rgba(0, 0, 0, 0); opacity: 0.5;"></ellipse><ellipse cx="472" cy="368" rx="123" ry="173.42999999999998" fill="none" stroke="#555555" transform="matrix(0.3827,-0.9239,0.9239,0.3827,-48.6142,663.2436)" stroke-width="1" opacity="0.5" style="-webkit-tap-highlight-color: rgba(0, 0, 0, 0); opacity: 0.5;"></ellipse><ellipse cx="630" cy="327" rx="120" ry="169.2" fill="none" stroke="#555555" transform="matrix(0.5556,-0.8315,0.8315,0.5556,8.1002,669.1544)" stroke-width="1" opacity="0.5" style="-webkit-tap-highlight-color: rgba(0, 0, 0, 0); opacity: 0.5;"></ellipse><ellipse cx="360" cy="358" rx="124" ry="174.84" fill="none" stroke="#555555" transform="matrix(0.7071,-0.7071,0.7071,0.7071,-147.7027,359.4142)" stroke-width="1" opacity="0.5" style="-webkit-tap-highlight-color: rgba(0, 0, 0, 0); opacity: 0.5;"></ellipse><ellipse cx="516" cy="253" rx="124" ry="174.84" fill="none" stroke="#555555" transform="matrix(0.8315,-0.5556,0.5556,0.8315,-53.5976,329.3124)" stroke-width="1" opacity="0.5" style="-webkit-tap-highlight-color: rgba(0, 0, 0, 0); opacity: 0.5;"></ellipse><ellipse cx="733" cy="257" rx="127" ry="179.07" fill="none" stroke="#555555" transform="matrix(0.9239,-0.3827,0.3827,0.9239,-42.5533,300.0699)" stroke-width="1" opacity="0.5" style="-webkit-tap-highlight-color: rgba(0, 0, 0, 0); opacity: 0.5;"></ellipse><ellipse cx="629" cy="325" rx="129" ry="181.89" fill="none" stroke="#555555" transform="matrix(0.9808,-0.1951,0.1951,0.9808,-51.3183,128.9566)" stroke-width="1" opacity="0.5" style="-webkit-tap-highlight-color: rgba(0, 0, 0, 0); opacity: 0.5;"></ellipse></svg>